# xmcd CD database file
#
# Track frame offsets:
#	150
#	13109
#	26066
#	36596
#	50549
#	71910
#	93492
#	109187
#	119786
#	130996
#	151273
#	173025
#
# Disc length: 2530 seconds
#
# Revision: 0
# Processed by: cddbd v1.5.2PL0 Copyright (c) Steve Scherf et al.
# Submitted via: CDex 1.91
#
DISCID=ae09e00c
DTITLE=Various Artist - Country Stars Live
DYEAR=2001
DGENRE=Country
TTITLE0=Stand By Your Man (Tammy Wynette)
TTITLE1=Rose Garden (Lynn Anderson)
TTITLE2=Let Your Love Flow (The Bellamy Brothers)
TTITLE3=Okie From Muskogee (Merle Haggard)
TTITLE4=Mr. Bojangles (Nitty Gritty Dirt Band)
TTITLE5=Patsy Cline Medley (Dottie West)
TTITLE6=You Are So Beautiful (Tanya Tucker)
TTITLE7=The Year Clayton Delaney Died (Tom T. Hall)
TTITLE8=D.I.V.O.R.C.E (Tammy Wynette)
TTITLE9=Cadillac Ranch (Nitty Gritty Dirt Band)
TTITLE10=If I Said You Had A Beautiful Body Would You Hold Against Me (The Bellamy Brothers)
TTITLE11=The Night They Drove Old Dixie Down (Tany Tucker)
EXTD=YEAR: 2001
EXTT0=
EXTT1=
EXTT2=
EXTT3=
EXTT4=
EXTT5=
EXTT6=
EXTT7=
EXTT8=
EXTT9=
EXTT10=
EXTT11=
PLAYORDER=
